# xmcd
#
# Track frame offsets: 
#        150
#        20477
#        38187
#        57556
#        77258
#        96075
#        116399
#        129523
#        148943
#        169401
#        189560
#        209114
#        229838
#        252770
#
# Disc length: 3657 seconds
#
# Revision: 0
# Processed by: cddbd v1.5.2PL0 Copyright (c) Steve Scherf et al.
# Submitted via: ExactAudioCopy v0.95a5
#
DISCID=c70e470e
DTITLE=杨曼 - 眼泪
DYEAR=2007
DGENRE=Anime
TTITLE0=疯狂着迷
TTITLE1=爱不分
TTITLE2=爱情复兴
TTITLE3=没有你的日子我真的好孤单
TTITLE4=秋天不回来
TTITLE5=眼泪
TTITLE6=走过咖啡屋
TTITLE7=遗失的美好
TTITLE8=不值得
TTITLE9=你的香气
TTITLE10=That's why you go away
TTITLE11=你最珍贵
TTITLE12=黄昏
TTITLE13=爱一个人好难
EXTD=
EXTT0=
EXTT1=
EXTT2=
EXTT3=
EXTT4=
EXTT5=
EXTT6=
EXTT7=
EXTT8=
EXTT9=
EXTT10=
EXTT11=
EXTT12=
EXTT13=
PLAYORDER=
